<?xml version="1.0" encoding="utf-8"?>
<!-- Generator: Adobe Illustrator 23.1.0, SVG Export Plug-In . SVG Version: 6.00 Build 0)  -->
<svg version="1.1" id="Ebene_1" xmlns="http://www.w3.org/2000/svg" xmlns:xlink="http://www.w3.org/1999/xlink" x="0px" y="0px"
	 viewBox="0 0 16 16" style="enable-background:new 0 0 16 16;" xml:space="preserve">
<g transform="matrix(.87499 0 0 .87499 .26458 -255.9)">
	<path d="M8.8,293.6c-4.4,0-8,3.6-8,8c0,4.4,3.6,8,8,8s8-3.6,8-8C16.8,297.2,13.3,293.6,8.8,293.6z M8.8,294.7
		c3.8,0,6.9,3.1,6.9,6.9c0,3.8-3.1,6.9-6.9,6.9S2,305.4,2,301.6C2,297.8,5.1,294.7,8.8,294.7z"/>
</g>
<path d="M7.7,7.8V7.3h1.8c0.1,0,0.1,0,0.1,0.1h0.1v-1H9.6c0,0.1,0,0.2-0.1,0.2H8.9H7.6H6.7v0.1c0.1,0,0.2,0.1,0.2,0.1v2.1l-2.5,0
	V8.3h1.1c0.1,0,0.2,0.1,0.2,0.1h0.1V7.6H5.5c0,0.1-0.1,0.1-0.2,0.1H4.3V7.2h1.8c0.1,0,0.1,0,0.1,0.2h0.1v-1H6.2c0,0.1,0,0.2-0.1,0.2
	H3.3v0.1c0.1,0,0.2,0.1,0.2,0.1v2.7c0,0.1,0,0.1-0.2,0.1v0.1h4.6V9.5c-0.1,0-0.2-0.1-0.2-0.1v-1l0.5,0c0.1,0,1.3,1.2,3.1,1.2
	c1.2,0,1.4-0.5,1.4-1c0-1.3-2.1-0.7-2.1-1.2c0-0.1,0.1-0.3,0.6-0.3c0.5,0,1,0.2,1,0.3v0.1l0.1,0l0.4-0.8l-0.1,0c0,0-0.1,0.1-0.2,0.1
	c-0.2,0-0.5-0.2-1.3-0.2c-0.8,0-1.3,0.4-1.3,1c0,1.1,2.1,0.6,2.1,1.1c0,0.3-0.1,0.4-0.7,0.4c-1.5,0-2.6-1-2.6-1.2L7.7,7.8z"/>
</svg>
