<?xml version="1.0" encoding="utf-8"?>
<!-- Generator: Adobe Illustrator 23.1.0, SVG Export Plug-In . SVG Version: 6.00 Build 0)  -->
<svg version="1.1" id="Ebene_1" xmlns="http://www.w3.org/2000/svg" xmlns:xlink="http://www.w3.org/1999/xlink" x="0px" y="0px"
	 viewBox="0 0 320 200" style="enable-background:new 0 0 320 200;" xml:space="preserve">
<style type="text/css">
	.st0{fill:#FFFFFF;}
</style>
<path class="st0" d="M108.8,152.6v-15.4H161c1.8,0,2.5,0.9,3,4.2h2v-30.2h-2c-0.5,4-1.2,4.8-3,4.8h-16.9h-38.6H78.7v2.1
	c4.1,0.4,4.6,1.6,4.6,3.1v65.1l-74-0.1V170h30.8c3.3,0,4.5,1.8,5,4h2v-27.1h-2c-0.5,2.2-1.7,4-5,4H9.3v-14.4h53.1
	c1.8,0,2.5,0.9,3,4.9h2v-30.2h-2c-0.5,4-1.2,4.9-3,4.9h-82.6v2.1c4.1,0.4,4.6,1.6,4.6,3.1v80.9c0,1.6-0.5,2.8-4.6,3.1v2h133.6v-2.1
	c-4.1-0.4-4.6-1.6-4.6-3.1v-29L123,173c3.8,0,37,35.7,90.9,35.7c35.9,0,41.7-16.5,41.7-31.4c0-39.9-60.2-21-60.2-36.4
	c0-4,1.7-8.2,16-8.2c15.6,0,29.5,4.9,29.5,9.2v1.9l2,1.1l11.4-24.1l-1.8-0.7c-1.2,1.4-2.3,2.6-4.5,2.6c-4.5,0-15.9-7.3-38.6-7.3
	c-24.3,0-36.9,12-36.9,29.3c0,33.5,59.9,19.3,59.9,32.1c0,7.6-2.5,11.8-19,11.8c-44,0-75.6-31.3-75.6-36L108.8,152.6z"/>
</svg>
