<?xml version="1.0" encoding="utf-8"?>
<!-- Generator: Adobe Illustrator 25.0.1, SVG Export Plug-In . SVG Version: 6.00 Build 0)  -->
<svg version="1.1"
	 id="Layer_1" inkscape:export-filename="/Users/misch/nextcloud/_icon/_msi/banner.png" xmlns:cc="http://creativecommons.org/ns#" xmlns:dc="http://purl.org/dc/elements/1.1/" xmlns:inkscape="http://www.inkscape.org/namespaces/inkscape" xmlns:rdf="http://www.w3.org/1999/02/22-rdf-syntax-ns#" xmlns:sodipodi="http://sodipodi.sourceforge.net/DTD/sodipodi-0.dtd" xmlns:svg="http://www.w3.org/2000/svg"
	 xmlns="http://www.w3.org/2000/svg" xmlns:xlink="http://www.w3.org/1999/xlink" x="0px" y="0px" viewBox="0 0 493 58"
	 style="enable-background:new 0 0 493 58;" xml:space="preserve">
<style type="text/css">
	.st0{fill:#00205C;}
</style>
<sodipodi:namedview  bordercolor="#666666" borderopacity="1" fit-margin-bottom="10" fit-margin-left="10" fit-margin-right="10" fit-margin-top="10" gridtolerance="10" guidetolerance="10" id="namedview16" inkscape:bbox-nodes="true" inkscape:bbox-paths="true" inkscape:current-layer="Layer_1" inkscape:cx="264.97589" inkscape:cy="100.72146" inkscape:document-rotation="0" inkscape:pageopacity="1" inkscape:pageshadow="2" inkscape:snap-bbox="true" inkscape:snap-bbox-edge-midpoints="true" inkscape:snap-bbox-midpoints="true" inkscape:snap-page="true" inkscape:window-height="812" inkscape:window-maximized="1" inkscape:window-width="1440" inkscape:window-x="0" inkscape:window-y="23" inkscape:zoom="1.3964178" objecttolerance="10" pagecolor="#ffffff" showgrid="false" units="px">
	</sodipodi:namedview>
<path class="st0" d="M436.8,27.4v-4H451c0.5,0,0.7,0.2,0.8,1.1h0.5v-7.8h-0.5c-0.1,1-0.3,1.2-0.8,1.2h-4.6h-10.5h-7.3v0.5
	c1.1,0.1,1.2,0.4,1.2,0.8v16.9l-20.1,0v-4.2h8.4c0.9,0,1.2,0.4,1.3,1h0.5v-7h-0.5c-0.1,0.6-0.4,1-1.3,1h-8.4v-3.7h14.5
	c0.5,0,0.7,0.2,0.8,1.2h0.5v-7.8H425c-0.1,1-0.3,1.2-0.8,1.2h-22.5v0.5c1.1,0.1,1.2,0.4,1.2,0.8v21c0,0.4-0.1,0.7-1.2,0.8v0.5h36.4
	V41c-1.1-0.1-1.2-0.4-1.2-0.8v-7.5h3.9c1,0,10.1,9.2,24.7,9.2c9.8,0,11.4-4.3,11.4-8.2c0-10.4-16.4-5.4-16.4-9.4
	c0-1,0.4-2.1,4.4-2.1c4.2,0,8,1.2,8,2.4v0.5l0.5,0.3l3.1-6.3l-0.5-0.2c-0.3,0.4-0.6,0.7-1.2,0.7c-1.2,0-4.3-1.9-10.5-1.9
	c-6.6,0-10,3.1-10,7.6c0,8.7,16.3,5,16.3,8.3c0,2-0.7,3.1-5.2,3.1c-12,0-20.5-8.1-20.5-9.3L436.8,27.4z"/>
</svg>
