<?xml version="1.0" encoding="utf-8"?>
<!-- Generator: Adobe Illustrator 23.1.0, SVG Export Plug-In . SVG Version: 6.00 Build 0)  -->
<svg version="1.1" id="Ebene_1" xmlns="http://www.w3.org/2000/svg" xmlns:xlink="http://www.w3.org/1999/xlink" x="0px" y="0px"
	 viewBox="0 0 16 16" style="enable-background:new 0 0 16 16;" xml:space="preserve">
<style type="text/css">
	.st0{fill:#FFFFFF;}
</style>
<g transform="matrix(.87499 0 0 .87499 .26458 -255.9)">
	<path class="st0" d="M8.8,293.6c-4.4,0-8,3.6-8,8c0,4.4,3.6,8,8,8s8-3.6,8-8C16.8,297.2,13.3,293.6,8.8,293.6z M8.8,294.7
		c3.8,0,6.9,3.1,6.9,6.9c0,3.8-3.1,6.9-6.9,6.9S2,305.4,2,301.6C2,297.8,5.1,294.7,8.8,294.7z"/>
</g>
<path class="st0" d="M7.7,7.8V7.2h1.9c0.1,0,0.1,0,0.1,0.1h0.1V6.3H9.7c0,0.1,0,0.2-0.1,0.2H9H7.5h-1v0.1c0.2,0,0.2,0.1,0.2,0.1v2.3
	L4,8.9V8.4h1.1c0.1,0,0.2,0.1,0.2,0.1h0.1v-1H5.3c0,0.1-0.1,0.1-0.2,0.1H4V7.2h2c0.1,0,0.1,0,0.1,0.2h0.1V6.3H6.1
	c0,0.1,0,0.2-0.1,0.2h-3v0.1c0.2,0,0.2,0.1,0.2,0.1v2.8c0,0.1,0,0.1-0.2,0.1v0.1h4.9V9.6c-0.2,0-0.2-0.1-0.2-0.1v-1h0.5
	c0.1,0,1.4,1.3,3.3,1.3c1.3,0,1.5-0.6,1.5-1.1c0-1.4-2.2-0.7-2.2-1.3c0-0.1,0.1-0.3,0.6-0.3c0.6,0,1.1,0.2,1.1,0.3v0.1l0.1,0L13,6.6
	l-0.1,0c0,0-0.1,0.1-0.2,0.1c-0.2,0-0.6-0.3-1.4-0.3c-0.9,0-1.4,0.4-1.4,1c0,1.2,2.2,0.7,2.2,1.1c0,0.3-0.1,0.4-0.7,0.4
	C9.9,9,8.7,7.9,8.7,7.8L7.7,7.8z"/>
</svg>
