<?xml version="1.0" encoding="utf-8"?>
<!-- Generator: Adobe Illustrator 21.0.0, SVG Export Plug-In . SVG Version: 6.00 Build 0)  -->
<svg version="1.1" id="Ebene_1" xmlns:serif="http://www.serif.com/"
	 xmlns="http://www.w3.org/2000/svg" xmlns:xlink="http://www.w3.org/1999/xlink" x="0px" y="0px" viewBox="0 0 560 288"
	 style="enable-background:new 0 0 560 288;" xml:space="preserve">
<style type="text/css">
	.st0{display:none;fill:#0082C9;}
	.st1{fill:#00205C;}
	.st2{fill:#FFFFFF;}
</style>
<path id="Circ" class="st0" d="M280.2,2.5c152-5.8,141.5,63.4,141.5,141.5s-63.4,141.5-141.5,141.5S138.7,222.1,138.7,144
	S202.1,5.5,280.2,2.5z"/>
<g>
	
		<image style="display:none;overflow:visible;enable-background:new    ;" width="1324" height="1323" id="_Image1" xlink:href="97E0C0A8.png"  transform="matrix(0.2143 0 0 0.2143 138.3578 2.3571)">
	</image>
</g>
<path class="st1" d="M335.8,288H224.7c-47.3,0-86-38.7-86-86V86c0-47.3,38.7-86,86-86h111.2c47.3,0,86,38.7,86,86v116
	C421.8,249.3,383.1,288,335.8,288z"/>
<path class="st2" d="M272.8,138.3v-12.2h43.3c1.5,0,2.1,0.7,2.5,3.3h1.6v-23.9h-1.6c-0.4,3.1-1,3.8-2.5,3.8h-14h-32h-22.2v1.7
	c3.4,0.3,3.9,1.2,3.9,2.5V165l-61.3-0.1v-12.8H216c2.7,0,3.7,1.4,4.1,3.1h1.6v-21.4H220c-0.4,1.8-1.4,3.1-4.1,3.1h-25.5v-11.4h44
	c1.5,0,2.1,0.7,2.5,3.9h1.6v-23.9h-1.6c-0.4,3.1-1,3.9-2.5,3.9h-68.5v1.6c3.4,0.3,3.9,1.2,3.9,2.5v63.9c0,1.2-0.4,2.2-3.9,2.5v1.6
	h110.8v-1.6c-3.4-0.3-3.9-1.2-3.9-2.5v-22.9h11.8c3.1,0,30.7,28.2,75.4,28.2c29.8,0,34.6-13,34.6-24.8c0-31.6-49.9-16.6-49.9-28.8
	c0-3.1,1.4-6.4,13.3-6.4c12.9,0,24.4,3.9,24.4,7.3v1.5l1.7,0.8l9.5-19.1l-1.5-0.6c-1,1.1-1.9,2.1-3.7,2.1c-3.7,0-13.2-5.8-32-5.8
	c-20.2,0-30.6,9.5-30.6,23.2c0,26.5,49.7,15.2,49.7,25.4c0,6-2.1,9.3-15.8,9.3c-36.5,0-62.6-24.7-62.6-28.4L272.8,138.3z"/>
<image style="display:none;overflow:visible;" width="200" height="200" xlink:href="wizard-groupware@2x.png"  transform="matrix(6.000000e-02 0 0 6.000000e-02 78 152)">
</image>
</svg>
