<?xml version="1.0" encoding="utf-8"?>
<!-- Generator: Adobe Illustrator 23.1.0, SVG Export Plug-In . SVG Version: 6.00 Build 0)  -->
<svg version="1.1"
	 id="svg2" xmlns:cc="http://creativecommons.org/ns#" xmlns:dc="http://purl.org/dc/elements/1.1/" xmlns:inkscape="http://www.inkscape.org/namespaces/inkscape" xmlns:rdf="http://www.w3.org/1999/02/22-rdf-syntax-ns#" xmlns:sodipodi="http://sodipodi.sourceforge.net/DTD/sodipodi-0.dtd" xmlns:svg="http://www.w3.org/2000/svg"
	 xmlns="http://www.w3.org/2000/svg" xmlns:xlink="http://www.w3.org/1999/xlink" x="0px" y="0px" viewBox="0 0 1024 1024"
	 style="enable-background:new 0 0 1024 1024;" xml:space="preserve">
<style type="text/css">
	.st0{fill:#FFFFFF;}
</style>
<sodipodi:namedview  bordercolor="#666666" borderopacity="1" fit-margin-bottom="0" fit-margin-left="0" fit-margin-right="0" fit-margin-top="0" gridtolerance="10" guidetolerance="10" id="namedview8" inkscape:current-layer="svg2" inkscape:cx="-225.44227" inkscape:cy="284.0991" inkscape:pageopacity="0" inkscape:pageshadow="2" inkscape:window-height="480" inkscape:window-width="640" inkscape:zoom="0.32" objecttolerance="10" pagecolor="#ffffff" showgrid="false">
	</sodipodi:namedview>
<path class="st0" d="M479,485v-57h192.8c6.7,0,9.2,3.2,11,15.4h7.3V331.9h-7.3c-1.8,14.7-4.3,17.9-11,17.9h-62.5H466.7h-98.8v7.7
	c15.3,1.3,17.1,5.8,17.1,11.5v240.2l-273.1-0.3v-59.6h113.6c12.2,0,16.5,6.5,18.4,14.7h7.3v-99.9h-7.3c-1.8,8.3-6.2,14.7-18.4,14.7
	H111.8v-53.1h196.1c6.7,0,9.2,3.2,11,18h7.3V332.1h-7.3c-1.8,14.7-4.3,18-11,18H3.1v7.6c15.3,1.3,17.1,5.8,17.1,11.5v298.5
	c0,5.8-1.8,10.2-17.1,11.5v7.4h493v-7.6c-15.3-1.3-17.1-5.8-17.1-11.5v-107l52.6-0.2c14,0,136.7,131.7,335.4,131.7
	c132.5,0,153.9-60.9,153.9-115.9c0-147.3-222.3-77.5-222.3-134.5c0-14.7,6.2-30.1,59.2-30.1c57.4,0,108.7,18,108.7,34v7.1l7.4,3.9
	l42.2-89l-6.7-2.6c-4.3,5.2-8.5,9.6-16.5,9.6c-16.5,0-58.6-26.9-142.3-26.9c-89.8,0-136.2,44.2-136.2,108.3
	c0,123.6,221.1,71.1,221.1,118.5c0,28.2-9.2,43.5-70.2,43.5c-162.5,0-278.9-115.4-278.9-132.7L479,485z"/>
</svg>
