<?xml version="1.0" encoding="utf-8"?>
<!-- Generator: Adobe Illustrator 23.1.0, SVG Export Plug-In . SVG Version: 6.00 Build 0)  -->
<svg version="1.1" id="Ebene_1" xmlns="http://www.w3.org/2000/svg" xmlns:xlink="http://www.w3.org/1999/xlink" x="0px" y="0px"
	 viewBox="0 0 266 126" style="enable-background:new 0 0 266 126;" xml:space="preserve">
<style type="text/css">
	.st0{fill:#FFFFFF;}
</style>
<path class="st0" d="M128.3,61.8V48.6h46.5c1.6,0,2.2,0.7,2.6,3.5h1.8V26.5h-1.8c-0.4,3.4-1,4.1-2.6,4.1h-15.1h-34.4h-23.8v1.8
	c3.7,0.3,4.1,1.3,4.1,2.6v55.2l-65.9-0.1V76.6h27.4c2.9,0,4,1.5,4.4,3.4h1.8V57h-1.8c-0.4,1.9-1.5,3.4-4.4,3.4H39.8V48.1H87
	c1.6,0,2.2,0.7,2.6,4.1h1.8V26.6h-1.8c-0.4,3.4-1,4.1-2.6,4.1H13.5v1.8c3.7,0.3,4.1,1.3,4.1,2.6v68.6c0,1.3-0.4,2.4-4.1,2.6v1.7
	h118.9v-1.8c-3.7-0.3-4.1-1.3-4.1-2.6V79.1l12.7,0c3.4,0,33,30.3,80.9,30.3c32,0,37.1-14,37.1-26.7c0-33.9-53.6-17.8-53.6-30.9
	c0-3.4,1.5-6.9,14.3-6.9c13.8,0,26.2,4.1,26.2,7.8v1.6l1.8,0.9l10.2-20.5l-1.6-0.6c-1,1.2-2.1,2.2-4,2.2c-4,0-14.1-6.2-34.3-6.2
	c-21.7,0-32.9,10.2-32.9,24.9c0,28.4,53.3,16.4,53.3,27.3c0,6.5-2.2,10-16.9,10c-39.2,0-67.3-26.5-67.3-30.5L128.3,61.8z"/>
</svg>
