<?xml version="1.0" encoding="utf-8"?>
<!-- Generator: Adobe Illustrator 23.1.0, SVG Export Plug-In . SVG Version: 6.00 Build 0)  -->
<svg version="1.1" id="Ebene_1" xmlns="http://www.w3.org/2000/svg" xmlns:xlink="http://www.w3.org/1999/xlink" x="0px" y="0px"
	 viewBox="0 0 256 128" style="enable-background:new 0 0 256 128;" xml:space="preserve">
<style type="text/css">
	.st0{fill:#00205C;}
</style>
<path class="st0" d="M120.4,58.1V45.5h44.4c1.5,0,2.1,0.7,2.5,3.4h1.7V24.4h-1.7c-0.4,3.2-1,3.9-2.5,3.9h-14.4h-32.8H94.8v1.7
	c3.5,0.3,3.9,1.3,3.9,2.5v52.8l-62.9-0.1V72.2H62c2.8,0,3.8,1.4,4.2,3.2h1.7v-22h-1.7c-0.4,1.8-1.4,3.2-4.2,3.2H35.8V45H81
	c1.5,0,2.1,0.7,2.5,3.9h1.7V24.5h-1.7c-0.4,3.2-1,3.9-2.5,3.9H10.8v1.7c3.5,0.3,3.9,1.3,3.9,2.5v65.6c0,1.3-0.4,2.2-3.9,2.5v1.6
	h113.6v-1.7c-3.5-0.3-3.9-1.3-3.9-2.5V74.7l12.1,0c3.2,0,31.5,28.9,77.3,28.9c30.5,0,35.5-13.4,35.5-25.5c0-32.4-51.2-17-51.2-29.5
	c0-3.2,1.4-6.6,13.6-6.6c13.2,0,25.1,3.9,25.1,7.5v1.5l1.7,0.9l9.7-19.6l-1.5-0.6c-1,1.1-2,2.1-3.8,2.1c-3.8,0-13.5-5.9-32.8-5.9
	c-20.7,0-31.4,9.7-31.4,23.8c0,27.1,50.9,15.6,50.9,26c0,6.2-2.1,9.6-16.2,9.6c-37.4,0-64.2-25.4-64.2-29.2L120.4,58.1z"/>
</svg>
